<svg width="800" height="800" viewBox="0 0 800 800" fill="none" xmlns="http://www.w3.org/2000/svg">
<circle cx="400" cy="400" r="385" fill="#D9D9D9"/>
<mask id="path-2-inside-1_224_16" fill="white">
<path d="M799.925 406H0.0134767C3.22111 624.147 181.059 800 399.969 800C618.88 800 796.718 624.147 799.925 406Z"/>
<path d="M799.939 395C797.261 176.39 619.214 0 399.969 0C180.725 0 2.67788 176.39 0 395H799.939Z"/>
</mask>
<path d="M799.925 406H0.0134767C3.22111 624.147 181.059 800 399.969 800C618.88 800 796.718 624.147 799.925 406Z" fill="white"/>
<path d="M799.939 395C797.261 176.39 619.214 0 399.969 0C180.725 0 2.67788 176.39 0 395H799.939Z" fill="#FF0000"/>
<path d="M799.925 406L843.921 406.647L844.577 362H799.925V406ZM0.0134767 406V362H-44.6383L-43.9818 406.647L0.0134767 406ZM799.939 395V439H844.481L843.936 394.461L799.939 395ZM0 395L-43.9967 394.461L-44.5423 439H0V395ZM799.925 362H0.0134767V450H799.925V362ZM399.969 756C205.143 756 46.8633 599.49 44.0087 405.353L-43.9818 406.647C-40.4211 648.804 156.975 844 399.969 844V756ZM755.93 405.353C753.076 599.49 594.796 756 399.969 756V844C642.964 844 840.36 648.804 843.921 406.647L755.93 405.353ZM399.969 44C595.094 44 753.559 200.988 755.942 395.539L843.936 394.461C840.963 151.792 643.334 -44 399.969 -44V44ZM43.9967 395.539C46.3799 200.988 204.845 44 399.969 44V-44C156.605 -44 -41.0241 151.792 -43.9967 394.461L43.9967 395.539ZM0 439H799.939V351H0V439Z" fill="black" mask="url(#path-2-inside-1_224_16)"/>
<path fill-rule="evenodd" clip-rule="evenodd" d="M796.52 453C798.815 435.659 800 417.968 800 400C800 380.995 798.675 362.299 796.111 344H3.889C1.32547 362.299 0 380.995 0 400C0 417.968 1.18472 435.659 3.4803 453H796.52Z" fill="black"/>
<circle cx="400" cy="400" r="165" fill="black"/>
<circle cx="400" cy="398" r="112" fill="white"/>
<circle cx="400" cy="398" r="77" fill="black"/>
<circle cx="400" cy="398" r="64" fill="white"/>
</svg>
